.
 
http://www.scenetime.com    -   SceneTime [ We been having it ] !!!


How come you press harder on a remote control when you know the battery is dead? so you better seed to get speed ;)

        Seed back for speed


...................................NFO:.................................................[img]http://img836.imageshack.us/img836/9854/marsneedsm.jpg[/img]

[color=blue][size=4][b]Mars.needs.Moms.2011.R5.DVDRip.XVID.AC3.HQ.Hive-CM8[/b][/size][/color]


[b]Thx Hive

CM8 Doing It Right The First Time :D

Source: Russian DVD-9

Tajna.Krasnoj.Planety.2011.D.DVD
Had English 5.1 audio already on it.

Encode: 

last but not least my nice version
added sharpness,brightness,rgb,chroma,denoise
and used higher bitrate to get a nicer video for the fast animation motion scenes.
Studio-Audio is from Russian DVD, also extracted full eng subs of it.
below nice covers and labels
enjoy

Video: 720x304 @bitrate 2400 2pass
Audio: English AC3 5.1 @384
Sample: yes 2 included
Subs: yes english in srt /subs[/b]


[url]http://www.imdb.com/title/tt1305591/[/url]


General
Complete name                    : Mars.needs.Moms.2011.R5.DVDRip.XVID.AC3.HQ.Hive-CM8.avi
Format                           : AVI
Format/Info                      : Audio Video Interleave
File size                        : 1.65 GiB
Duration                         : 1h 24mn
Overall bit rate                 : 2 793 Kbps
Writing application              : Nandub v1.0rc2
Writing library                  : Nandub build 1853/release

Video
ID                               : 0
Format                           : MPEG-4 Visual
Format profile                   : Advanced Simple@L5
Format settings, BVOP            : 2
Format settings, QPel            : Yes
Format settings, GMC             : No warppoints
Format settings, Matrix          : Default (H.263)
Muxing mode                      : Packed bitstream
Codec ID                         : XVID
Codec ID/Hint                    : XviD
Duration                         : 1h 24mn
Bit rate                         : 2 400 Kbps
Width                            : 720 pixels
Height                           : 304 pixels
Display aspect ratio             : 2.35:1
Frame rate                       : 25.000 fps
Color space                      : YUV
Chroma subsampling               : 4:2:0
Bit depth                        : 8 bits
Scan type                        : Progressive
Compression mode                 : Lossy
Bits/(Pixel*Frame)               : 0.439
Stream size                      : 1.42 GiB (86%)
Writing library                  : XviD 1.2.1 (UTC 2008-12-04)

Audio
ID                               : 1
Format                           : AC-3
Format/Info                      : Audio Coding 3
Mode extension                   : CM (complete main)
Codec ID                         : 2000
Duration                         : 1h 24mn
Bit rate mode                    : Constant
Bit rate                         : 384 Kbps
Channel(s)                       : 6 channels
Channel positions                : Front: L C R, Side: L R, LFE
Sampling rate                    : 48.0 KHz
Bit depth                        : 16 bits
Compression mode                 : Lossy
Stream size                      : 232 MiB (14%)
Alignment                        : Split accross interleaves
Interleave, duration             : 40 ms (1.00 video frame)
Interleave, preload duration     : 500 ms


Seth Green	 ... 	Milo
Dan Fogler	... 	Gribble
Joan Cusack	... 	Mom
Elisabeth Harnois	... 	Ki
Mindy Sterling	... 	Supervisor
Kevin Cahoon	... 	Wingnut


A young boy named Milo gains a deeper appreciation for his mom 
after Martians come to Earth to take her away. 

 
[img]http://img200.imageshack.us/img200/9088/15645328.png[/img]
[img]http://img807.imageshack.us/img807/6816/mama.png[/img]
[img]http://img31.imageshack.us/img31/8052/mamamap.png[/img]
[img]http://img339.imageshack.us/img339/104/mamamama.png[/img]
[img]http://img820.imageshack.us/img820/6668/mamamamama.png[/img]
[img]http://img805.imageshack.us/img805/8052/mamamamamama.png[/img]
[img]http://img19.imageshack.us/img19/2999/mamamamamamama.png[/img]

Cover+label:

[img]http://img17.imageshack.us/img17/5614/marsneedsmomslabel.jpg[/img]

[img]http://img803.imageshack.us/img803/2577/marsneedsmomscover.jpg[/img]






Greetz

ViSiON,SANTi,MAGNET,THC,T0XiC,iNK,LKRG,IMAGiNE,WBZ,FLAWL3SS,NOVA
Vik,OneTwo,Rapeseed,D2U,SAFC,goldadvance,MEMORY100,KaN1vE,Unevano,Pinnz,Wayne,Mr Hive
and all P2P groups 
Great Work Guys :D

FYS

CM8@hushmail.com